<?xml version="1.0" encoding="UTF-8"?><svg id="Layer_2" xmlns="http://www.w3.org/2000/svg" viewBox="0 0 84.35 45.57"><defs><style>.cls-1{fill:#fff;}.cls-2{fill:#0071eb;}.cls-3{fill:#022e3d;}.cls-4{fill:#181817;}</style></defs><g id="Laag_1"><g><path class="cls-1" d="M44.8,24.47V10.86h4.89c1.1,0,1.96,.2,2.6,.59s1.09,.9,1.36,1.53c.27,.62,.4,1.27,.4,1.94,0,.47-.08,.94-.23,1.41-.16,.47-.41,.91-.75,1.31s-.8,.72-1.35,.96c-.55,.24-1.22,.36-2.02,.36h-3.53v5.51h-1.36Zm1.36-6.8h3.61c.73,0,1.3-.14,1.73-.42s.73-.64,.91-1.06c.18-.42,.27-.85,.27-1.28s-.08-.84-.25-1.26c-.16-.43-.46-.79-.88-1.07-.43-.29-1.02-.43-1.78-.43h-3.61v5.53Z"/><path class="cls-1" d="M46.42,24.73h-1.88V10.6h5.15c1.14,0,2.06,.21,2.73,.63,.67,.42,1.16,.97,1.45,1.64,.28,.65,.43,1.34,.43,2.04,0,.49-.08,.99-.25,1.49-.17,.5-.44,.97-.8,1.4-.37,.43-.85,.77-1.44,1.03-.59,.26-1.3,.39-2.13,.39h-3.27v5.51Zm-1.36-.52h.84v-5.51h3.79c.76,0,1.4-.12,1.92-.34,.51-.23,.93-.53,1.25-.9,.32-.37,.56-.78,.7-1.22,.15-.45,.22-.89,.22-1.33,0-.63-.13-1.24-.38-1.83-.25-.57-.67-1.04-1.26-1.41-.59-.37-1.42-.55-2.46-.55h-4.63v13.09Zm4.71-6.28h-3.87v-6.05h3.87c.81,0,1.46,.16,1.93,.48,.47,.32,.8,.72,.98,1.2,.17,.46,.26,.91,.26,1.36s-.1,.92-.29,1.38c-.2,.47-.54,.86-1.01,1.18-.47,.31-1.1,.46-1.87,.46Zm-3.35-.52h3.35c.67,0,1.21-.13,1.59-.38,.38-.25,.66-.57,.82-.95,.17-.39,.25-.79,.25-1.18s-.08-.77-.23-1.17c-.14-.38-.41-.7-.79-.95-.38-.26-.93-.39-1.64-.39h-3.35v5.01Z"/></g><g><path class="cls-1" d="M59.15,24.7c-1.31,0-2.34-.46-3.1-1.39s-1.14-2.2-1.14-3.8c0-1.07,.17-1.99,.51-2.77,.34-.78,.83-1.38,1.47-1.8s1.39-.64,2.26-.64,1.63,.21,2.27,.63,1.12,1.02,1.46,1.79c.34,.78,.51,1.7,.51,2.77s-.17,1.99-.51,2.78c-.34,.78-.83,1.38-1.47,1.8s-1.39,.63-2.26,.63Zm0-1.28c.89,0,1.59-.35,2.1-1.04,.5-.69,.75-1.66,.75-2.89s-.25-2.2-.75-2.89c-.5-.69-1.2-1.03-2.1-1.03s-1.61,.34-2.11,1.03c-.5,.68-.74,1.66-.74,2.91s.25,2.2,.75,2.88c.5,.68,1.2,1.03,2.1,1.03Z"/><path class="cls-1" d="M59.15,24.96c-1.38,0-2.49-.5-3.3-1.49-.79-.97-1.2-2.31-1.2-3.96,0-1.1,.18-2.07,.54-2.88,.36-.82,.89-1.46,1.56-1.92s1.48-.68,2.4-.68,1.73,.23,2.41,.67c.68,.44,1.2,1.08,1.56,1.91,.35,.81,.53,1.77,.53,2.87s-.18,2.07-.54,2.88c-.36,.82-.89,1.47-1.56,1.92-.68,.45-1.48,.68-2.4,.68Zm0-10.4c-.81,0-1.52,.2-2.11,.59-.59,.4-1.06,.97-1.38,1.69-.33,.74-.49,1.64-.49,2.67,0,1.53,.36,2.76,1.08,3.63,.72,.87,1.66,1.3,2.9,1.3,.81,0,1.52-.2,2.11-.59,.59-.39,1.05-.96,1.38-1.69,.33-.75,.49-1.64,.49-2.67s-.16-1.93-.49-2.67c-.32-.73-.78-1.29-1.37-1.68-.59-.39-1.3-.59-2.12-.59Zm0,9.12c-.98,0-1.76-.38-2.31-1.13-.53-.73-.8-1.75-.8-3.04s.27-2.34,.79-3.06c.55-.75,1.32-1.13,2.32-1.13s1.75,.38,2.31,1.14c.53,.73,.8,1.75,.8,3.04s-.27,2.31-.8,3.04c-.55,.76-1.33,1.15-2.31,1.15Zm0-7.85c-.83,0-1.45,.3-1.89,.92-.46,.64-.69,1.56-.69,2.76s.23,2.09,.7,2.73c.45,.62,1.07,.92,1.89,.92s1.43-.3,1.89-.93c.47-.65,.7-1.57,.7-2.74s-.24-2.09-.7-2.73c-.46-.62-1.07-.92-1.89-.92Z"/></g><g><path class="cls-1" d="M67.96,24.7c-.66,0-1.3-.14-1.91-.43-.61-.28-1.12-.68-1.54-1.19l.99-.85c.36,.39,.75,.69,1.19,.9,.43,.21,.86,.32,1.28,.32,.63,0,1.13-.13,1.47-.39,.35-.26,.52-.62,.52-1.09,0-.29-.08-.56-.24-.8-.16-.24-.42-.46-.77-.68-.36-.21-.83-.43-1.41-.65-1.05-.39-1.81-.82-2.27-1.28-.46-.46-.69-1.04-.69-1.73,0-.76,.3-1.38,.89-1.86s1.37-.71,2.32-.71c.63,0,1.22,.12,1.77,.36s1.02,.59,1.41,1.05l-.95,.8c-.64-.65-1.38-.97-2.25-.97-.56,0-1.01,.12-1.34,.35-.33,.24-.49,.56-.49,.98,0,.38,.17,.71,.5,.99,.34,.28,.95,.58,1.85,.91,.73,.27,1.31,.56,1.75,.86s.76,.64,.96,1.03c.2,.38,.3,.82,.3,1.32,0,.85-.3,1.52-.89,2-.6,.49-1.42,.73-2.46,.73Z"/><path class="cls-1" d="M67.96,24.96c-.7,0-1.38-.15-2.02-.45-.64-.3-1.19-.72-1.63-1.25l-.16-.2,1.38-1.17,.17,.18c.33,.36,.71,.65,1.11,.85,.39,.2,.79,.29,1.17,.29,.57,0,1.02-.11,1.32-.34,.28-.21,.41-.5,.41-.88,0-.24-.06-.46-.19-.66-.14-.2-.37-.41-.69-.6-.34-.2-.8-.41-1.37-.62-1.1-.41-1.87-.85-2.36-1.34-.51-.51-.77-1.15-.77-1.91,0-.84,.33-1.54,.99-2.06,.64-.51,1.47-.77,2.48-.77,.66,0,1.29,.13,1.87,.39,.58,.26,1.09,.63,1.5,1.11l.17,.2-1.34,1.12-.17-.17c-.59-.6-1.27-.89-2.06-.89-.5,0-.9,.1-1.18,.31-.26,.19-.38,.44-.38,.77,0,.3,.13,.56,.41,.79,.31,.26,.91,.55,1.77,.87,.74,.28,1.35,.58,1.81,.89,.48,.33,.83,.7,1.04,1.12,.22,.42,.33,.91,.33,1.44,0,.92-.33,1.67-.99,2.2-.64,.52-1.53,.79-2.62,.79Zm-3.07-1.85c.36,.38,.79,.69,1.28,.92,.57,.27,1.17,.4,1.8,.4,.98,0,1.75-.23,2.3-.67,.54-.44,.8-1.03,.8-1.8,0-.45-.09-.86-.27-1.2-.17-.34-.47-.65-.87-.93-.43-.29-.99-.57-1.7-.83-.93-.34-1.56-.65-1.92-.95-.4-.33-.6-.73-.6-1.19,0-.5,.2-.9,.6-1.19,.37-.27,.88-.41,1.49-.41,.85,0,1.61,.3,2.26,.88l.57-.47c-.33-.33-.71-.59-1.14-.78-.52-.23-1.08-.34-1.67-.34-.89,0-1.61,.22-2.16,.65-.53,.42-.79,.97-.79,1.65,0,.62,.2,1.13,.62,1.54,.43,.43,1.16,.84,2.17,1.22,.6,.22,1.08,.45,1.45,.67,.39,.23,.67,.48,.86,.75,.19,.28,.28,.6,.28,.94,0,.55-.21,.99-.62,1.3-.39,.29-.94,.44-1.63,.44-.46,0-.93-.12-1.4-.35-.39-.19-.76-.45-1.09-.78l-.61,.52Z"/></g><g><path class="cls-1" d="M75.68,24.7c-.66,0-1.15-.2-1.49-.6-.34-.4-.51-.98-.51-1.74v-6.64h-1.64v-1.2h1.64v-3.44l1.36-.66v4.1h2.47v1.2h-2.47v6.23c0,.52,.09,.89,.26,1.12,.17,.23,.45,.35,.83,.35,.47,0,.96-.17,1.47-.5l-.16,1.34c-.26,.15-.54,.26-.84,.33-.3,.07-.61,.11-.92,.11Z"/><path class="cls-1" d="M75.68,24.96c-.73,0-1.3-.23-1.69-.69-.38-.45-.57-1.09-.57-1.9v-6.38h-1.64v-1.72h1.64v-3.34l1.88-.91v4.26h2.47v1.72h-2.47v5.97c0,.57,.11,.84,.2,.97,.12,.16,.33,.24,.63,.24,.41,0,.86-.16,1.33-.46l.46-.3-.23,2.02-.11,.07c-.28,.16-.58,.28-.91,.36-.31,.08-.65,.11-.98,.11Zm-3.39-9.49h1.64v6.9c0,.69,.15,1.22,.45,1.57,.29,.34,.72,.51,1.3,.51,.3,0,.59-.03,.86-.1,.23-.05,.45-.14,.65-.24l.08-.7c-.89,.42-1.79,.37-2.19-.16-.21-.28-.31-.69-.31-1.28v-6.49h2.47v-.68h-2.47v-3.95l-.84,.41v3.54h-1.64v.68Z"/></g><g><path class="cls-1" d="M43.5,41.46c-1,0-1.86-.19-2.58-.59-.71-.39-1.29-.92-1.74-1.59-.45-.67-.78-1.43-.99-2.27-.21-.84-.32-1.7-.32-2.59s.11-1.76,.34-2.6c.22-.84,.56-1.59,1.02-2.26s1.04-1.2,1.75-1.59c.71-.39,1.55-.59,2.52-.59,.78,0,1.43,.11,1.96,.32,.53,.21,.97,.49,1.33,.83,.35,.34,.65,.7,.89,1.06l-1.22,.72c-.3-.44-.68-.82-1.14-1.15-.45-.33-1.06-.49-1.83-.49s-1.44,.17-1.98,.51c-.54,.34-.97,.8-1.29,1.37s-.56,1.19-.7,1.86c-.15,.67-.22,1.34-.22,2,0,.74,.08,1.45,.24,2.14,.16,.69,.41,1.3,.75,1.84,.34,.54,.77,.96,1.3,1.28,.53,.32,1.16,.47,1.9,.47,.66,0,1.22-.15,1.71-.44,.48-.29,.86-.71,1.12-1.26,.27-.55,.4-1.21,.4-1.98v-.44h-2.6v-1.25h4.02v1.3c0,1.21-.2,2.21-.61,3-.41,.79-.96,1.39-1.67,1.78-.7,.39-1.5,.59-2.38,.59Z"/><path class="cls-1" d="M43.5,41.72c-1.05,0-1.95-.21-2.7-.62-.75-.41-1.36-.98-1.83-1.68-.46-.69-.81-1.48-1.02-2.35-.21-.85-.32-1.75-.32-2.65s.12-1.8,.34-2.67c.23-.86,.59-1.65,1.06-2.34,.48-.7,1.1-1.26,1.83-1.67,.74-.41,1.63-.62,2.64-.62,.82,0,1.49,.11,2.06,.34,.56,.22,1.03,.52,1.41,.88,.37,.36,.68,.73,.93,1.11l.15,.23-1.66,.98-.14-.2c-.29-.41-.65-.78-1.08-1.09-.41-.29-.97-.44-1.68-.44s-1.35,.16-1.84,.48c-.5,.32-.91,.75-1.21,1.28-.31,.54-.54,1.14-.68,1.79-.14,.65-.21,1.31-.21,1.95,0,.72,.08,1.42,.24,2.08,.15,.66,.4,1.25,.72,1.76,.32,.5,.73,.9,1.22,1.19,.49,.29,1.08,.44,1.77,.44,.61,0,1.13-.13,1.57-.4,.44-.26,.78-.65,1.02-1.15,.25-.51,.37-1.14,.37-1.87v-.18h-2.59v-1.77h4.54v1.56c0,1.25-.21,2.3-.64,3.12-.43,.84-1.03,1.47-1.77,1.89-.74,.42-1.59,.62-2.51,.62Zm0-14.08c-.92,0-1.73,.19-2.39,.56-.66,.37-1.22,.88-1.65,1.51-.44,.64-.77,1.37-.98,2.18-.22,.82-.33,1.67-.33,2.53s.1,1.71,.31,2.53c.2,.81,.52,1.54,.95,2.18,.42,.63,.97,1.14,1.65,1.51,.67,.37,1.49,.56,2.45,.56,.83,0,1.59-.19,2.25-.56,.65-.37,1.18-.93,1.56-1.68,.39-.75,.58-1.72,.58-2.88v-1.04h-3.5v.74h2.59v.7c0,.81-.14,1.51-.43,2.09-.29,.59-.7,1.05-1.22,1.37-.52,.31-1.14,.48-1.84,.48-.78,0-1.47-.17-2.03-.51-.56-.33-1.03-.79-1.39-1.36-.35-.56-.62-1.21-.79-1.92-.16-.7-.25-1.44-.25-2.2,0-.68,.07-1.37,.22-2.06,.15-.7,.4-1.35,.73-1.94,.34-.6,.81-1.09,1.38-1.46,.58-.37,1.29-.56,2.12-.56s1.48,.18,1.98,.54c.41,.29,.76,.64,1.06,1.02l.78-.46c-.2-.27-.43-.54-.7-.8-.33-.31-.75-.58-1.24-.78-.5-.2-1.13-.3-1.87-.3Z"/></g><g><path class="cls-1" d="M53.99,41.46c-1.17,0-2.05-.36-2.62-1.07-.57-.71-.86-1.8-.86-3.26v-5.84h1.36v6.07c0,.93,.19,1.64,.58,2.12,.39,.48,.95,.72,1.69,.72,.82,0,1.44-.25,1.86-.75s.63-1.24,.63-2.21v-5.94h1.36v9.94h-1.36v-1.2c-.3,.48-.67,.84-1.1,1.07-.44,.24-.95,.35-1.54,.35Z"/><path class="cls-1" d="M53.99,41.72c-1.25,0-2.2-.39-2.82-1.16-.61-.76-.92-1.91-.92-3.42v-6.1h1.88v6.33c0,.87,.18,1.53,.52,1.96,.34,.42,.83,.62,1.49,.62,.75,0,1.29-.22,1.66-.66,.38-.45,.57-1.14,.57-2.05v-6.2h1.88v10.46h-1.88v-.7c-.22,.22-.46,.41-.72,.55-.47,.26-1.03,.39-1.66,.39Zm-3.22-10.17v5.58c0,1.39,.27,2.43,.8,3.1,.53,.65,1.32,.97,2.42,.97,.54,0,1.02-.11,1.42-.32,.39-.21,.73-.54,1.01-.98l.48-.77v1.84h.84v-9.42h-.84v5.68c0,1.03-.23,1.83-.69,2.38-.47,.56-1.16,.85-2.06,.85-.82,0-1.45-.27-1.89-.82-.43-.52-.64-1.29-.64-2.28v-5.81h-.84Z"/></g><g><path class="cls-1" d="M63.44,41.46c-1.05,0-1.87-.29-2.47-.88-.6-.59-.89-1.4-.89-2.43,0-.66,.15-1.24,.44-1.72,.29-.49,.71-.86,1.25-1.12,.54-.26,1.18-.39,1.92-.39,.49,0,.95,.06,1.4,.18,.44,.12,.87,.31,1.29,.55v-.95c0-.84-.18-1.46-.55-1.86-.37-.39-.94-.59-1.71-.59-.46,0-.95,.09-1.46,.26-.51,.17-1,.41-1.46,.73l-.4-1.15c.52-.33,1.09-.58,1.7-.76,.61-.18,1.2-.27,1.79-.27,1.12,0,1.96,.29,2.53,.88,.57,.58,.86,1.44,.86,2.58v6.72h-1.29v-1.13c-.4,.43-.85,.77-1.36,1.01-.51,.24-1.04,.35-1.58,.35Zm.18-1.2c.5,0,.98-.13,1.46-.39,.47-.26,.91-.64,1.3-1.13v-1.86c-.38-.25-.8-.44-1.24-.57-.44-.13-.87-.2-1.29-.2-.74,0-1.34,.19-1.78,.56-.44,.37-.67,.87-.67,1.49s.2,1.15,.59,1.53c.4,.38,.94,.57,1.62,.57Z"/><path class="cls-1" d="M63.44,41.72c-1.12,0-2.01-.32-2.65-.95-.64-.64-.97-1.51-.97-2.61,0-.71,.16-1.33,.48-1.86s.78-.94,1.36-1.22c.57-.28,1.26-.42,2.03-.42,.5,0,1,.06,1.46,.19,.32,.09,.65,.21,.96,.37v-.52c0-.77-.16-1.34-.48-1.68-.32-.34-.83-.51-1.52-.51-.43,0-.89,.08-1.38,.24-.49,.16-.96,.4-1.4,.69l-.28,.19-.58-1.66,.17-.11c.54-.34,1.14-.61,1.77-.79,.63-.18,1.26-.28,1.86-.28,1.18,0,2.09,.32,2.71,.95,.62,.63,.93,1.56,.93,2.76v6.98h-1.81v-.78c-.3,.26-.63,.47-.99,.63-.54,.25-1.11,.38-1.69,.38Zm.25-6.54c-.7,0-1.3,.12-1.81,.37-.5,.24-.88,.58-1.15,1.03-.27,.44-.4,.98-.4,1.59,0,.95,.28,1.71,.82,2.24,.55,.54,1.3,.8,2.29,.8,.51,0,1-.11,1.47-.33,.47-.22,.9-.54,1.27-.94l.45-.5v1.54h.78v-6.46c0-1.06-.26-1.86-.78-2.4-.52-.53-1.3-.8-2.34-.8-.55,0-1.13,.09-1.72,.26-.52,.15-1.01,.36-1.46,.63l.22,.64c.39-.24,.81-.43,1.25-.58,.54-.18,1.06-.27,1.54-.27,.84,0,1.48,.23,1.9,.67,.41,.44,.62,1.13,.62,2.03v1.41l-.39-.23c-.39-.23-.81-.41-1.22-.53-.42-.12-.87-.18-1.33-.18Zm-.08,5.35c-.75,0-1.36-.22-1.8-.64-.45-.43-.67-1-.67-1.72s.26-1.27,.76-1.69c.76-.63,1.97-.81,3.31-.41,.47,.14,.91,.34,1.31,.6l.12,.08v2.09l-.06,.07c-.42,.52-.88,.92-1.38,1.2-.51,.28-1.04,.43-1.58,.43Zm.23-4.15c-.68,0-1.22,.17-1.62,.5-.38,.33-.57,.75-.57,1.29,0,.57,.17,1.01,.51,1.34,.35,.34,.82,.5,1.44,.5,.45,0,.9-.12,1.33-.36,.42-.23,.81-.57,1.17-1v-1.62c-.33-.2-.68-.35-1.06-.46-.42-.12-.83-.19-1.21-.19Z"/></g><g><path class="cls-1" d="M70.16,41.22v-9.94h1.36v1.58c.25-.58,.59-1.03,1.03-1.34,.44-.31,.95-.47,1.52-.47s1.08,.16,1.46,.48l-.2,1.29c-.19-.14-.41-.24-.64-.3-.23-.07-.48-.1-.74-.1-.48,0-.9,.14-1.26,.41s-.65,.65-.85,1.13c-.2,.48-.31,1.05-.31,1.69v5.57h-1.36Z"/><path class="cls-1" d="M71.78,41.48h-1.88v-10.46h1.88v.87c.18-.23,.39-.43,.62-.59,.48-.34,1.04-.51,1.67-.51s1.2,.18,1.63,.54l.11,.09-.29,1.84-.34-.24c-.17-.12-.36-.21-.56-.26-.2-.06-.43-.09-.67-.09-.43,0-.79,.12-1.11,.36s-.58,.59-.77,1.03c-.19,.45-.29,.98-.29,1.59v5.83Zm-1.36-.52h.84v-5.31c0-.67,.11-1.27,.33-1.79,.22-.52,.54-.94,.93-1.24,.41-.3,.89-.46,1.42-.46,.29,0,.57,.04,.81,.11,.13,.04,.25,.08,.37,.14l.12-.77c-.31-.22-.7-.33-1.18-.33-.52,0-.98,.14-1.37,.42-.39,.28-.71,.69-.94,1.23l-.5,1.18v-2.59h-.84v9.42Z"/></g><g><path class="cls-1" d="M80.06,41.46c-1.23,0-2.21-.47-2.92-1.4-.72-.94-1.07-2.21-1.07-3.81,0-1.08,.16-2,.49-2.78,.32-.77,.79-1.37,1.39-1.79,.61-.42,1.33-.63,2.16-.63,1.03,0,1.9,.4,2.62,1.19v-4.4l1.36-.65v14.04h-1.36v-.99c-.69,.82-1.58,1.22-2.66,1.22Zm.2-1.28c.49,0,.95-.14,1.39-.42,.44-.28,.8-.67,1.07-1.15v-4.77c-.29-.47-.66-.83-1.09-1.1-.44-.27-.89-.4-1.37-.4-.89,0-1.59,.34-2.08,1.02-.49,.68-.73,1.65-.73,2.9,0,.77,.12,1.45,.36,2.04,.24,.59,.57,1.05,.99,1.38,.42,.34,.91,.5,1.46,.5Z"/><path class="cls-1" d="M80.06,41.72c-1.31,0-2.36-.51-3.13-1.51-.75-.98-1.13-2.31-1.13-3.97,0-1.1,.17-2.07,.51-2.88,.34-.82,.84-1.46,1.49-1.9,.65-.45,1.42-.67,2.31-.67s1.69,.28,2.36,.84v-3.96l1.88-.9v14.71h-1.88v-.62c-.67,.57-1.47,.86-2.4,.86Zm.05-10.4c-.78,0-1.46,.2-2.01,.58-.56,.39-1,.95-1.3,1.68-.31,.74-.47,1.64-.47,2.68,0,1.53,.34,2.76,1.02,3.65,.67,.88,1.56,1.3,2.72,1.3,1.01,0,1.82-.37,2.47-1.13l.46-.54v1.44h.84v-13.37l-.84,.4v4.92l-.45-.5c-.67-.74-1.46-1.1-2.42-1.1Zm.16,9.12c-.61,0-1.15-.19-1.62-.56-.45-.35-.81-.85-1.07-1.49-.25-.62-.38-1.34-.38-2.14,0-1.31,.26-2.33,.78-3.05,.54-.74,1.31-1.12,2.29-1.12,.52,0,1.03,.15,1.5,.44,.47,.29,.86,.69,1.18,1.19l.04,.06v4.91l-.03,.06c-.29,.52-.68,.94-1.16,1.24-.48,.31-1,.46-1.53,.46Zm0-7.85c-.81,0-1.42,.3-1.87,.91-.45,.63-.68,1.56-.68,2.75,0,.73,.12,1.38,.34,1.94,.22,.55,.53,.98,.91,1.28,.71,.57,1.69,.61,2.55,.06,.38-.25,.7-.58,.95-1v-4.62c-.26-.4-.59-.72-.97-.96-.39-.24-.81-.36-1.23-.36Z"/></g><g><path class="cls-2" d="M35.56,24.01c.06-.16,.1-.34,.16-.51,2.1-7.25,2.77-13.52,2.77-13.52h0c-4.1-1.94-15.05-7.56-18.95-9.41C14.49,3.19,5.7,7.35,.58,9.98h0s3.37,31.77,18.95,35.01h0c7.66-1.59,12.35-10.06,15.17-18.27"/><path class="cls-4" d="M19.53,45.57c-.06,0-.11,0-.16-.02C3.59,42.22,.14,11.36,0,10.05c-.02-.24,.1-.47,.31-.58,2.51-1.29,5.95-2.97,9.28-4.6C13.08,3.16,16.69,1.4,19.26,.06c.16-.08,.35-.09,.52,0,1.92,.91,5.46,2.69,9.21,4.57,3.77,1.89,7.66,3.85,9.74,4.83,.27,.08,.37,.31,.34,.59,0,.06-.69,6.4-2.79,13.62l-.07,.24c-.03,.11-.06,.21-.1,.31-.11,.3-.44,.46-.74,.35-.3-.11-.46-.44-.35-.74,.03-.08,.06-.17,.08-.25l.08-.25c1.76-6.06,2.51-11.5,2.69-12.99-2.25-1.07-5.88-2.89-9.39-4.66-3.58-1.8-6.97-3.5-8.92-4.44-2.57,1.32-6.07,3.03-9.46,4.69-3.16,1.55-6.42,3.14-8.88,4.4,.47,3.75,4.33,31.03,18.33,34.08,6.09-1.33,11.01-7.34,14.61-17.86,.1-.3,.43-.47,.74-.36,.3,.1,.47,.43,.36,.74-3.77,11.01-9.02,17.28-15.6,18.65-.04,0-.08,.01-.12,.01Z"/></g><path class="cls-1" d="M7.24,32.5l21.11,2.05s-.85,5.32-1.54,5.98-5.39,4.39-7.32,4.22-11.09-5.69-12.25-12.25Z"/><path class="cls-4" d="M19.53,45.57c-.06,0-.11,0-.16-.02C3.59,42.22,.14,11.36,0,10.05c-.02-.24,.1-.47,.31-.58,2.51-1.29,5.95-2.97,9.28-4.6C13.08,3.16,16.69,1.4,19.26,.06c.16-.08,.35-.09,.52,0,1.92,.91,5.46,2.69,9.21,4.57,3.77,1.89,7.66,3.85,9.74,4.83,.27,.08,.37,.31,.34,.59,0,.06-.69,6.4-2.79,13.62l-.07,.24c-.03,.11-.06,.21-.1,.31-.11,.3-.44,.46-.74,.35-.3-.11-.46-.44-.35-.74,.03-.08,.06-.17,.08-.25l.08-.25c1.76-6.06,2.51-11.5,2.69-12.99-2.25-1.07-5.88-2.89-9.39-4.66-3.58-1.8-6.97-3.5-8.92-4.44-2.57,1.32-6.07,3.03-9.46,4.69-3.16,1.55-6.42,3.14-8.88,4.4,.47,3.75,4.33,31.03,18.33,34.08,6.09-1.33,11.01-7.34,14.61-17.86,.1-.3,.43-.47,.74-.36,.3,.1,.47,.43,.36,.74-3.77,11.01-9.02,17.28-15.6,18.65-.04,0-.08,.01-.12,.01Z"/><g><path class="cls-1" d="M28.59,34.82l.21-1.63,.59-4.64,.91-7.19c.06-.44,.08-.87,.08-1.3,0-5.13-3.82-9.6-9.05-10.25-5.66-.72-10.83,3.3-11.55,8.96l-1.08,8.51,.02-.16s-.39,3.18-1.47,6.17"/><path class="cls-3" d="M29.17,34.9l-1.15-.15,1.7-13.46c.05-.4,.08-.8,.08-1.23,0-4.91-3.67-9.07-8.54-9.67-5.33-.68-10.22,3.11-10.9,8.46l-1.06,8.34h0c-.02,.13-.41,3.28-1.5,6.3l-1.09-.39c.91-2.53,1.33-5.22,1.42-5.89h0s1.08-8.51,1.08-8.51c.76-5.98,6.23-10.22,12.2-9.46,5.45,.68,9.56,5.33,9.56,10.83,0,.48-.03,.93-.09,1.38l-1.7,13.46Z"/></g><path class="cls-3" d="M23.09,20.35c.5-1.36,2.5-1.28,2.95,.09,.13,.39,.2,.82,.16,1.27-.04,.5-.21,.96-.43,1.36-.75,1.37-2.83,.98-2.97-.58-.02-.24-.02-.5,0-.79,.04-.51,.15-.96,.29-1.35Z"/><path class="cls-3" d="M25.49,42.61c-.14,0-.28-.05-.39-.15-.24-.22-.25-.58-.04-.82,2.5-2.72,3.03-7.45,3.03-7.5,.03-.32,.32-.55,.64-.52,.32,.03,.55,.32,.52,.64-.02,.21-.57,5.15-3.33,8.16-.11,.12-.27,.19-.43,.19Z"/><path class="cls-3" d="M21.5,18.78c-.12,0-.24-.04-.35-.11-.26-.19-.31-.55-.12-.81,.05-.06,1.14-1.52,2.88-1.77,1.03-.15,2.03,.15,3.01,.88,.26,.19,.31,.56,.11,.81-.19,.26-.55,.31-.81,.11-.99-.75-1.99-.88-2.97-.39-.78,.39-1.28,1.04-1.28,1.05-.11,.15-.29,.23-.47,.23Z"/><path class="cls-3" d="M19.53,44.36c-.06,0-.11,0-.16-.02C4.52,41.18,1.27,12,1.14,10.76c-.02-.24,.1-.47,.31-.58,2.36-1.22,5.6-2.81,8.73-4.35,3.28-1.61,6.66-3.28,9.08-4.53,.16-.08,.35-.09,.52,0,1.81,.86,5.13,2.54,8.66,4.32,3.54,1.79,7.2,3.63,9.15,4.56,.26,.09,.36,.32,.34,.59,0,.06-.65,6.05-2.62,12.87l-.07,.22c-.03,.1-.06,.2-.09,.29-.11,.3-.44,.47-.74,.35-.3-.11-.46-.44-.35-.75,.03-.08,.05-.16,.08-.24l.07-.23c1.64-5.69,2.35-10.8,2.53-12.24-2.1-1.01-5.5-2.73-8.8-4.39-3.35-1.69-6.53-3.3-8.37-4.19-2.41,1.25-5.69,2.86-8.87,4.42-2.96,1.46-6.02,2.96-8.33,4.15,.45,3.63,4.09,29.27,17.19,32.15,5.71-1.26,10.32-6.93,13.7-16.86,.1-.3,.43-.47,.74-.36,.3,.1,.47,.44,.36,.74-3.55,10.41-8.49,16.35-14.69,17.65-.04,0-.08,.01-.12,.01Z"/><path class="cls-1" d="M19.53,45.57c-.06,0-.11,0-.16-.02C3.59,42.22,.14,11.36,0,10.05c-.02-.24,.1-.47,.31-.58,2.51-1.29,5.95-2.97,9.28-4.6C13.08,3.16,16.69,1.4,19.26,.06c.16-.08,.35-.09,.52,0,1.92,.91,5.46,2.69,9.21,4.57,3.77,1.89,7.66,3.85,9.74,4.83,.27,.08,.37,.31,.34,.59,0,.06-.69,6.4-2.79,13.62l-.07,.24c-.03,.11-.06,.21-.1,.31-.11,.3-.44,.46-.74,.35-.3-.11-.46-.44-.35-.74,.03-.08,.06-.17,.08-.25l.08-.25c1.76-6.06,2.51-11.5,2.69-12.99-2.25-1.07-5.88-2.89-9.39-4.66-3.58-1.8-6.97-3.5-8.92-4.44-2.57,1.32-6.07,3.03-9.46,4.69-3.16,1.55-6.42,3.14-8.88,4.4,.47,3.75,4.33,31.03,18.33,34.08,6.09-1.33,11.01-7.34,14.61-17.86,.1-.3,.43-.47,.74-.36,.3,.1,.47,.43,.36,.74-3.77,11.01-9.02,17.28-15.6,18.65-.04,0-.08,.01-.12,.01Z"/><polygon class="cls-1" points="30.73 22.51 36.29 23.75 37.17 25.72 30.02 27.89 30.73 22.51"/><path class="cls-3" d="M29.8,29.13c-.24,0-.46-.14-.54-.38-.11-.3,.04-.64,.34-.75l7.09-2.64c.05-.02,.08-.06,.08-.12s-.02-.1-.08-.12l-6.53-2.81c-.3-.13-.43-.47-.3-.76,.13-.3,.47-.43,.76-.3l6.53,2.81c.49,.21,.79,.69,.78,1.22-.01,.53-.34,.99-.84,1.18l-7.09,2.64c-.07,.02-.14,.04-.2,.04Z"/></g></svg>