<?xml version="1.0" encoding="UTF-8"?><svg id="Layer_2" xmlns="http://www.w3.org/2000/svg" viewBox="0 0 38.27 44.64"><defs><style>.cls-1{fill:#fff;}.cls-2{fill:#0071eb;}.cls-3{fill:#022e3d;}.cls-4{fill:#181817;}</style></defs><g id="Laag_1"><g><g><path class="cls-2" d="M34.83,23.52c.06-.16,.1-.33,.16-.5,2.06-7.1,2.71-13.24,2.71-13.24h0c-4.01-1.9-14.74-7.4-18.56-9.21C14.19,3.13,5.59,7.2,.57,9.78h0s3.3,31.12,18.56,34.29h0c7.5-1.56,12.1-9.86,14.86-17.89"/><path class="cls-4" d="M19.13,44.64c-.05,0-.11,0-.16-.02C3.51,41.35,.14,11.13,0,9.84c-.02-.23,.1-.46,.31-.57,2.46-1.27,5.83-2.91,9.09-4.51C12.82,3.09,16.35,1.37,18.87,.06c.16-.08,.34-.08,.5,0,1.88,.89,5.35,2.63,9.02,4.48,3.69,1.85,7.5,3.77,9.54,4.73,.27,.08,.36,.3,.33,.58,0,.06-.68,6.27-2.73,13.34l-.07,.23c-.03,.1-.06,.21-.1,.3-.11,.3-.43,.45-.73,.34-.3-.11-.45-.43-.34-.73,.03-.08,.05-.16,.08-.25l.08-.24c1.72-5.94,2.46-11.27,2.64-12.72-2.2-1.05-5.76-2.83-9.2-4.56-3.5-1.76-6.82-3.43-8.74-4.35-2.52,1.3-5.94,2.97-9.26,4.59-3.1,1.51-6.29,3.08-8.7,4.31,.46,3.67,4.24,30.39,17.95,33.38,5.97-1.3,10.78-7.19,14.31-17.5,.1-.3,.42-.46,.72-.35,.3,.1,.46,.43,.35,.72-3.7,10.78-8.84,16.93-15.28,18.27-.04,0-.08,.01-.12,.01Z"/></g><path class="cls-1" d="M7.09,31.83l20.68,2.01s-.83,5.21-1.51,5.86-5.28,4.3-7.17,4.13c-1.89-.17-10.86-5.58-11.99-12Z"/><path class="cls-4" d="M19.13,44.64c-.05,0-.11,0-.16-.02C3.51,41.35,.14,11.13,0,9.84c-.02-.23,.1-.46,.31-.57,2.46-1.27,5.83-2.91,9.09-4.51C12.82,3.09,16.35,1.37,18.87,.06c.16-.08,.34-.08,.5,0,1.88,.89,5.35,2.63,9.02,4.48,3.69,1.85,7.5,3.77,9.54,4.73,.27,.08,.36,.3,.33,.58,0,.06-.68,6.27-2.73,13.34l-.07,.23c-.03,.1-.06,.21-.1,.3-.11,.3-.43,.45-.73,.34-.3-.11-.45-.43-.34-.73,.03-.08,.05-.16,.08-.25l.08-.24c1.72-5.94,2.46-11.27,2.64-12.72-2.2-1.05-5.76-2.83-9.2-4.56-3.5-1.76-6.82-3.43-8.74-4.35-2.52,1.3-5.94,2.97-9.26,4.59-3.1,1.51-6.29,3.08-8.7,4.31,.46,3.67,4.24,30.39,17.95,33.38,5.97-1.3,10.78-7.19,14.31-17.5,.1-.3,.42-.46,.72-.35,.3,.1,.46,.43,.35,.72-3.7,10.78-8.84,16.93-15.28,18.27-.04,0-.08,.01-.12,.01Z"/><polygon class="cls-1" points="29.41 20.7 35.54 23.26 36.41 25.19 28.26 27.54 29.41 20.7"/><path class="cls-1" d="M19.13,43.14c-.05,0-.11,0-.16-.02C4.42,40.04,1.25,11.61,1.12,10.4c-.02-.23,.1-.46,.31-.57,2.31-1.19,5.48-2.74,8.55-4.24,3.21-1.57,6.53-3.19,8.89-4.41,.16-.08,.34-.09,.5,0,1.77,.84,5.03,2.48,8.48,4.21,3.46,1.74,7.05,3.54,8.96,4.45,.25,.08,.36,.31,.33,.58,0,.06-.64,5.89-2.57,12.54l-.07,.22c-.03,.1-.06,.19-.09,.29-.1,.3-.43,.46-.73,.34-.3-.1-.45-.43-.34-.73,.03-.08,.05-.15,.07-.23l.07-.23c1.61-5.54,2.3-10.52,2.47-11.93-2.06-.98-5.39-2.66-8.62-4.28-3.28-1.65-6.4-3.21-8.2-4.08-2.36,1.22-5.57,2.79-8.68,4.31-2.9,1.42-5.9,2.88-8.16,4.04,.44,3.53,4.01,28.51,16.83,31.32,5.59-1.23,10.1-6.75,13.42-16.42,.1-.3,.43-.46,.72-.35,.3,.1,.46,.43,.35,.72-3.48,10.14-8.32,15.93-14.38,17.19-.04,0-.08,.01-.12,.01Z"/><path class="cls-3" d="M19.13,44.64c-.05,0-.11,0-.16-.02C3.51,41.35,.14,11.13,0,9.84c-.02-.23,.1-.46,.31-.57,2.46-1.27,5.83-2.91,9.09-4.51C12.82,3.09,16.35,1.37,18.87,.06c.16-.08,.34-.08,.5,0,1.88,.89,5.35,2.63,9.02,4.48,3.69,1.85,7.5,3.77,9.54,4.73,.27,.08,.36,.3,.33,.58,0,.06-.68,6.27-2.73,13.34l-.07,.23c-.03,.1-.06,.21-.1,.3-.11,.3-.43,.45-.73,.34-.3-.11-.45-.43-.34-.73,.03-.08,.05-.16,.08-.25l.08-.24c1.72-5.94,2.46-11.27,2.64-12.72-2.2-1.05-5.76-2.83-9.2-4.56-3.5-1.76-6.82-3.43-8.74-4.35-2.52,1.3-5.94,2.97-9.26,4.59-3.1,1.51-6.29,3.08-8.7,4.31,.46,3.67,4.24,30.39,17.95,33.38,5.97-1.3,10.78-7.19,14.31-17.5,.1-.3,.42-.46,.72-.35,.3,.1,.46,.43,.35,.72-3.7,10.78-8.84,16.93-15.28,18.27-.04,0-.08,.01-.12,.01Z"/><path class="cls-3" d="M29.19,28.53c-.23,0-.45-.14-.53-.37-.11-.29,.04-.62,.33-.73l6.94-2.58c.05-.02,.08-.06,.08-.12s-.02-.1-.08-.12l-6.4-2.75c-.29-.12-.42-.46-.3-.75,.12-.29,.46-.43,.75-.3l6.4,2.75c.48,.2,.78,.67,.76,1.19-.01,.52-.34,.97-.82,1.15l-6.94,2.58c-.07,.02-.13,.04-.2,.04Z"/><g><path class="cls-1" d="M28,34.11l.2-1.6,.57-4.55,.89-7.04c.06-.43,.08-.85,.08-1.27,0-5.02-3.75-9.4-8.87-10.04-5.54-.71-10.61,3.23-11.31,8.78l-1.06,8.33,.02-.16s-.38,3.11-1.44,6.05"/><path class="cls-3" d="M28.57,34.18l-1.13-.14,1.67-13.18c.05-.39,.08-.78,.08-1.2,0-4.81-3.6-8.88-8.37-9.48-5.22-.66-10.01,3.05-10.68,8.28l-1.04,8.17h0c-.02,.13-.4,3.21-1.47,6.17l-1.07-.39c.9-2.47,1.3-5.11,1.39-5.77h0s1.06-8.33,1.06-8.33c.75-5.86,6.1-10.01,11.95-9.27,5.34,.66,9.36,5.22,9.36,10.61,0,.47-.03,.91-.08,1.35l-1.67,13.18Z"/></g><path class="cls-3" d="M22.62,19.93c.49-1.33,2.45-1.26,2.89,.09,.13,.39,.19,.8,.16,1.24-.04,.49-.2,.94-.42,1.33-.74,1.34-2.77,.96-2.91-.57-.02-.24-.02-.49,0-.77,.04-.5,.14-.94,.28-1.32Z"/><path class="cls-3" d="M24.96,41.74c-.14,0-.28-.05-.38-.15-.23-.21-.25-.57-.03-.8,2.44-2.66,2.96-7.29,2.97-7.34,.03-.31,.31-.54,.63-.51,.31,.03,.54,.31,.51,.63-.02,.2-.56,5.05-3.26,7.99-.11,.12-.27,.18-.42,.18Z"/><path class="cls-3" d="M21.05,18.4c-.12,0-.24-.04-.34-.11-.25-.19-.3-.54-.12-.79,.05-.06,1.12-1.49,2.82-1.74,1.01-.15,1.99,.14,2.94,.86,.25,.19,.3,.55,.11,.8-.19,.25-.54,.3-.8,.11-.97-.73-1.95-.86-2.91-.38-.77,.38-1.25,1.02-1.26,1.03-.11,.15-.28,.23-.46,.23Z"/></g></g></svg>